HIERARCHY
ROOT SimulationBone
{
	OFFSET 0.000000 0.000000 0.000000
	CHANNELS 6 Xposition Yposition Zposition Zrotation Yrotation Xrotation 
	JOINT Hips
	{
		OFFSET 0.000000 0.000000 0.000000
		CHANNELS 6 Xposition Yposition Zposition Zrotation Yrotation Xrotation 
		JOINT LeftUpLeg
		{
			OFFSET 0.103459 1.857842 10.548500
			CHANNELS 3 Zrotation Yrotation Xrotation
			JOINT LeftLeg
			{
				OFFSET 43.500008 -0.000042 -0.000011
				CHANNELS 3 Zrotation Yrotation Xrotation
				JOINT LeftFoot
				{
					OFFSET 42.372200 0.000000 0.000010
					CHANNELS 3 Zrotation Yrotation Xrotation
					JOINT LeftToe
					{
						OFFSET 17.300018 0.000008 -0.000006
						CHANNELS 3 Zrotation Yrotation Xrotation
						End Site
						{
							OFFSET 0.000000 0.000000 0.000000
						}
					}
				}
			}
		}
		JOINT RightUpLeg
		{
			OFFSET 0.103459 1.857820 -10.548510
			CHANNELS 3 Zrotation Yrotation Xrotation
			JOINT RightLeg
			{
				OFFSET 43.500038 -0.000004 -0.000004
				CHANNELS 3 Zrotation Yrotation Xrotation
				JOINT RightFoot
				{
					OFFSET 42.372261 -0.000019 0.000015
					CHANNELS 3 Zrotation Yrotation Xrotation
					JOINT RightToe
					{
						OFFSET 17.300003 -0.000001 0.000006
						CHANNELS 3 Zrotation Yrotation Xrotation
						End Site
						{
							OFFSET 0.000000 0.000000 0.000000
						}
					}
				}
			}
		}
		JOINT Spine
		{
			OFFSET 6.901967 -2.603730 -0.000004
			CHANNELS 3 Zrotation Yrotation Xrotation
			JOINT Spine1
			{
				OFFSET 12.588097 -0.000009 0.000008
				CHANNELS 3 Zrotation Yrotation Xrotation
				JOINT Spine2
				{
					OFFSET 12.343205 0.000003 -0.000002
					CHANNELS 3 Zrotation Yrotation Xrotation
					JOINT Neck
					{
						OFFSET 25.832899 -0.000006 0.000003
						CHANNELS 3 Zrotation Yrotation Xrotation
						JOINT Head
						{
							OFFSET 11.766611 0.000013 0.000001
							CHANNELS 3 Zrotation Yrotation Xrotation
							End Site
							{
								OFFSET 0.000000 0.000000 0.000000
							}
						}
					}
					JOINT LeftShoulder
					{
						OFFSET 19.745903 -1.480350 6.000102
						CHANNELS 3 Zrotation Yrotation Xrotation
						JOINT LeftArm
						{
							OFFSET 11.284125 -0.000002 -0.000024
							CHANNELS 3 Zrotation Yrotation Xrotation
							JOINT LeftForeArm
							{
								OFFSET 33.000050 0.000009 0.000033
								CHANNELS 3 Zrotation Yrotation Xrotation
								JOINT LeftHand
								{
									OFFSET 25.200012 0.000010 -0.000003
									CHANNELS 3 Zrotation Yrotation Xrotation
									End Site
									{
										OFFSET 0.000000 0.000000 0.000000
									}
								}
							}
						}
					}
					JOINT RightShoulder
					{
						OFFSET 19.746105 -1.480362 -6.000072
						CHANNELS 3 Zrotation Yrotation Xrotation
						JOINT RightArm
						{
							OFFSET 11.284140 -0.000003 -0.000004
							CHANNELS 3 Zrotation Yrotation Xrotation
							JOINT RightForeArm
							{
								OFFSET 33.000099 0.000013 0.000007
								CHANNELS 3 Zrotation Yrotation Xrotation
								JOINT RightHand
								{
									OFFSET 25.199776 0.000126 0.000428
									CHANNELS 3 Zrotation Yrotation Xrotation
									End Site
									{
										OFFSET 0.000000 0.000000 0.000000
									}
								}
							}
						}
					}
				}
			}
		}
	}
}
MOTION
Frames: 6
Frame Time: 0.016667
-53.873389 0.000000 -504.183672 0.000000 9.582129 0.000000 1.136498 90.282532 -0.129842 94.050483 -0.987352 179.735768 160.513093 0.449402 -174.006787 -58.590741 -0.167826 -8.567387 75.300683 4.520146 -5.646908 21.454553 0.003091 0.000001 -173.843368 -1.919997 173.061434 -17.553578 7.488146 8.360272 86.638906 -6.826125 -5.460530 21.454555 -0.003109 -0.000017 6.539647 -0.606119 1.050663 3.055358 -1.239316 2.085361 2.737410 -1.226568 2.092808 -30.061980 -20.085361 -4.745213 1.345277 21.313317 -17.387298 -140.224231 -76.693908 -42.085977 -27.246754 61.100726 23.244113 -27.211696 -14.861088 1.169723 8.073408 -6.078685 52.723134 -154.474903 75.057314 27.556034 -2.579005 -62.648884 -34.153957 -44.829457 20.768351 -2.000852 19.610981 -17.610082 -41.547565 
-52.348031 0.000000 -504.484936 0.000000 9.720089 0.000000 1.040264 90.192861 -0.160016 93.999662 -1.445247 -179.848967 159.029248 0.915772 -173.489859 -54.822167 -0.196446 -8.463463 74.358430 4.421547 -5.661403 21.454555 0.003091 0.000000 -172.606789 -1.563758 172.856325 -16.939724 7.468101 8.850585 86.969298 -7.104394 -5.289921 21.454554 -0.003109 -0.000018 6.639647 -0.842933 1.245539 3.248271 -1.719976 2.467583 2.930349 -1.704911 2.477922 -30.200999 -21.911780 -5.328379 1.301844 23.149190 -19.138601 -140.936439 -76.386874 -41.374010 -28.074459 60.632713 19.399588 -26.270088 -14.696373 1.144260 9.773113 -5.239681 49.635902 -155.312498 75.837556 26.682172 -3.380225 -62.474995 -33.528667 -46.201820 20.948453 -2.052945 19.585419 -17.387202 -42.604740 
-50.825485 0.000000 -504.785583 0.000000 9.859025 0.000000 0.927229 90.141258 -0.166510 93.815125 -1.901352 -179.393748 157.788735 1.429903 -173.320572 -50.302601 -0.128020 -7.821248 73.064001 4.035143 -5.273014 21.454557 0.003091 -0.000000 -171.444592 -1.279404 172.745866 -16.175204 7.352241 9.333948 87.030925 -7.396337 -5.131523 21.454555 -0.003108 -0.000018 6.711483 -1.074371 1.416529 3.383929 -2.189124 2.802016 3.066018 -2.172031 2.815176 -30.256798 -23.601735 -5.970986 1.282017 24.935261 -20.860631 -141.504414 -76.084238 -40.808216 -28.703073 60.212985 15.909707 -25.670864 -14.663402 1.131342 11.700981 -4.239091 47.007150 -156.109695 76.486946 25.854260 -3.918369 -62.262206 -32.886547 -47.626809 21.138198 -2.112829 19.497977 -16.870967 -43.920188 
-49.306493 0.000000 -505.083430 0.000000 9.996824 0.000000 0.810916 90.146389 -0.143007 93.526596 -2.346322 -178.943412 156.812450 1.939835 -173.572728 -45.173855 0.017986 -6.525020 71.359951 3.154189 -4.911998 21.454557 0.003091 -0.000000 -170.313181 -1.064920 172.616331 -15.214668 7.161608 9.845613 86.730596 -7.729569 -4.973722 21.454554 -0.003108 -0.000018 6.754726 -1.299589 1.570456 3.461697 -2.644934 3.102713 3.143762 -2.626020 3.118615 -30.170024 -25.192890 -6.649998 1.219124 26.722184 -22.559468 -141.696265 -75.782900 -40.625449 -29.185291 59.845851 12.822068 -25.365056 -14.672575 1.126703 13.741316 -3.034935 45.378782 -157.128723 76.974967 24.804798 -4.069199 -61.980343 -32.208512 -49.094229 21.175985 -2.165211 19.324398 -15.656462 -45.333589 
-47.791083 0.000000 -505.374783 0.000000 10.131184 0.000000 0.711689 90.157822 -0.109649 93.213376 -2.742441 -178.549729 156.195867 2.400607 -173.787456 -39.704821 -0.055776 -5.032219 69.673823 1.906314 -5.270219 21.454557 0.003090 0.000000 -169.299858 -0.892195 172.501741 -14.425529 7.002350 10.303540 86.316938 -8.038937 -4.829681 21.454555 -0.003108 -0.000017 6.786885 -1.511794 1.716619 3.516733 -3.074353 3.388350 3.198758 -3.053710 3.406837 -29.992463 -26.607378 -7.359610 1.141167 28.428138 -24.179294 -141.601225 -75.552311 -40.732206 -29.533027 59.513881 10.302299 -25.224576 -14.698133 1.126425 15.539821 -1.678714 44.440618 -158.456425 77.249407 23.445835 -3.877254 -61.614813 -31.623457 -50.537354 21.188888 -2.212197 18.739765 -13.936275 -46.339605 
-46.276874 0.000000 -505.656785 0.000000 10.255302 0.000000 0.643291 90.122942 -0.086321 92.948722 -3.052451 -178.248952 156.004211 2.787795 -173.573738 -34.245654 -0.522647 -3.823856 68.543985 0.469085 -6.788571 21.454557 0.003090 0.000000 -168.494803 -0.744252 172.488608 -14.172263 6.962307 10.608340 86.051095 -8.243360 -4.706398 21.454556 -0.003109 -0.000017 6.824585 -1.701911 1.861062 3.582518 -3.459861 3.670908 3.264510 -3.437507 3.691715 -29.782681 -27.773313 -8.081402 1.091135 29.954313 -25.648490 -141.378342 -75.453432 -40.963802 -29.739118 59.201364 8.516062 -25.112895 -14.728137 1.126691 16.731760 -0.251231 43.704434 -160.053008 77.293688 21.817196 -3.441351 -61.180453 -31.225417 -51.866959 21.308074 -2.264060 17.472279 -11.954811 -46.539169 
